<svg width="1440" height="320" viewBox="0 0 1440 320" fill="none" xmlns="http://www.w3.org/2000/svg">
<path d="M0 128L40 154.7C80 181 160 235 240 261.3C320 288 400 288 480 261.3C560 235 627 276.2 707 244.5C787 212.2 880 235 960 261.3C1040 288 1120 224 1200 261.3C1280 299 1360 309 1400 314.7L1440 320V0H1400C1360 0 1280 0 1200 0C1120 0 1040 0 960 0C880 0 800 0 720 0C640 0 560 0 480 0C400 0 320 0 240 0C160 0 80 0 40 0H0V128Z" fill="#FC4D80"/>
<path d="M435.727 141V82.8182H441.04V109.494H474.051V82.8182H479.364V141H474.051V114.267H441.04V141H435.727ZM511.381 141.909C507.309 141.909 503.786 140.962 500.812 139.068C497.839 137.155 495.538 134.513 493.909 131.142C492.299 127.752 491.494 123.85 491.494 119.438C491.494 115.044 492.299 111.142 493.909 107.733C495.538 104.305 497.782 101.625 500.642 99.6932C503.521 97.7424 506.845 96.767 510.614 96.767C512.981 96.767 515.263 97.2027 517.46 98.0739C519.657 98.9261 521.627 100.242 523.369 102.023C525.131 103.784 526.523 106.009 527.545 108.699C528.568 111.369 529.08 114.532 529.08 118.188V120.688H494.989V116.227H523.909C523.909 113.424 523.341 110.905 522.205 108.67C521.087 106.417 519.525 104.636 517.517 103.33C515.528 102.023 513.227 101.369 510.614 101.369C507.848 101.369 505.415 102.108 503.312 103.585C501.21 105.062 499.563 107.013 498.369 109.438C497.195 111.862 496.598 114.513 496.58 117.392V120.062C496.58 123.528 497.176 126.559 498.369 129.153C499.581 131.729 501.295 133.727 503.511 135.148C505.727 136.568 508.35 137.278 511.381 137.278C513.445 137.278 515.254 136.956 516.807 136.312C518.379 135.669 519.695 134.807 520.756 133.727C521.835 132.629 522.65 131.426 523.199 130.119L528 131.682C527.337 133.519 526.248 135.214 524.733 136.767C523.237 138.32 521.362 139.57 519.108 140.517C516.873 141.445 514.297 141.909 511.381 141.909ZM542.418 157.364C541.414 157.364 540.476 157.269 539.605 157.08C538.734 156.89 538.043 156.682 537.531 156.455L538.895 151.994C540.618 152.525 542.152 152.714 543.497 152.562C544.842 152.43 546.035 151.824 547.077 150.744C548.118 149.684 549.046 148.055 549.861 145.858L551.452 141.426L535.401 97.3636H540.884L553.838 134.324H554.236L567.19 97.3636H572.673L554.207 147.903C553.431 150.006 552.474 151.758 551.338 153.159C550.202 154.58 548.885 155.631 547.389 156.312C545.912 157.013 544.255 157.364 542.418 157.364ZM588.241 133.045L587.73 136.085C587.408 138.131 586.954 140.384 586.366 142.847C585.779 145.309 585.173 147.648 584.548 149.864C583.923 152.08 583.384 153.86 582.929 155.205H579.037C579.283 153.917 579.596 152.278 579.974 150.29C580.372 148.301 580.779 146.095 581.196 143.67C581.613 141.265 581.991 138.784 582.332 136.227L582.73 133.045H588.241ZM630.493 82.8182V141H625.18V82.8182H630.493ZM649.229 82.8182V102.222H644.456V82.8182H649.229ZM662.176 141V97.3636H667.091V104.068H667.545C668.417 101.814 669.866 100.044 671.892 98.7557C673.938 97.4489 676.39 96.7955 679.25 96.7955C682.261 96.7955 684.733 97.5057 686.665 98.9261C688.616 100.328 690.074 102.259 691.04 104.722H691.409C692.394 102.297 693.994 100.375 696.21 98.9545C698.445 97.5152 701.153 96.7955 704.335 96.7955C708.388 96.7955 711.589 98.0739 713.938 100.631C716.286 103.169 717.46 106.881 717.46 111.767V141H712.403V111.767C712.403 108.32 711.523 105.735 709.761 104.011C708 102.288 705.68 101.426 702.801 101.426C699.468 101.426 696.902 102.449 695.102 104.494C693.303 106.54 692.403 109.134 692.403 112.278V141H687.233V111.312C687.233 108.358 686.409 105.972 684.761 104.153C683.114 102.335 680.794 101.426 677.801 101.426C675.794 101.426 673.985 101.919 672.375 102.903C670.784 103.888 669.525 105.261 668.597 107.023C667.688 108.765 667.233 110.773 667.233 113.045V141H662.176ZM799.712 82.8182V141H794.541L760.166 92.2784H759.712V141H754.399V82.8182H759.541L794.03 131.597H794.484V82.8182H799.712ZM814.186 141V97.3636H819.271V141H814.186ZM816.771 89.8636C815.73 89.8636 814.839 89.5133 814.101 88.8125C813.362 88.0928 812.993 87.2311 812.993 86.2273C812.993 85.2235 813.362 84.3712 814.101 83.6705C814.839 82.9508 815.73 82.5909 816.771 82.5909C817.813 82.5909 818.703 82.9508 819.442 83.6705C820.18 84.3712 820.55 85.2235 820.55 86.2273C820.55 87.2311 820.18 88.0928 819.442 88.8125C818.703 89.5133 817.813 89.8636 816.771 89.8636ZM849.69 141.909C845.789 141.909 842.389 140.934 839.491 138.983C836.613 137.032 834.378 134.362 832.787 130.972C831.196 127.581 830.401 123.718 830.401 119.381C830.401 115.006 831.205 111.114 832.815 107.705C834.444 104.295 836.698 101.625 839.577 99.6932C842.455 97.7424 845.798 96.767 849.605 96.767C852.522 96.767 855.164 97.3352 857.531 98.4716C859.899 99.589 861.849 101.17 863.384 103.216C864.937 105.242 865.912 107.61 866.31 110.318H861.196C860.666 107.856 859.387 105.754 857.361 104.011C855.353 102.25 852.796 101.369 849.69 101.369C846.906 101.369 844.444 102.127 842.304 103.642C840.164 105.138 838.488 107.231 837.276 109.92C836.082 112.591 835.486 115.687 835.486 119.21C835.486 122.752 836.073 125.886 837.247 128.614C838.421 131.322 840.069 133.443 842.19 134.977C844.33 136.511 846.83 137.278 849.69 137.278C851.622 137.278 853.384 136.919 854.974 136.199C856.584 135.46 857.929 134.419 859.009 133.074C860.107 131.729 860.846 130.129 861.224 128.273H866.338C865.959 130.905 865.022 133.254 863.526 135.318C862.048 137.364 860.126 138.973 857.759 140.148C855.41 141.322 852.721 141.909 849.69 141.909ZM894.136 141.909C890.367 141.909 887.034 140.953 884.136 139.04C881.258 137.127 879.004 134.485 877.375 131.114C875.746 127.723 874.932 123.812 874.932 119.381C874.932 114.911 875.746 110.981 877.375 107.591C879.004 104.182 881.258 101.53 884.136 99.6364C887.034 97.7235 890.367 96.767 894.136 96.767C897.905 96.767 901.229 97.7235 904.108 99.6364C906.987 101.549 909.241 104.201 910.869 107.591C912.517 110.981 913.341 114.911 913.341 119.381C913.341 123.812 912.527 127.723 910.898 131.114C909.269 134.485 907.006 137.127 904.108 139.04C901.229 140.953 897.905 141.909 894.136 141.909ZM894.136 137.278C897.167 137.278 899.733 136.464 901.835 134.835C903.938 133.206 905.528 131.038 906.608 128.33C907.706 125.621 908.256 122.638 908.256 119.381C908.256 116.123 907.706 113.131 906.608 110.403C905.528 107.676 903.938 105.489 901.835 103.841C899.733 102.193 897.167 101.369 894.136 101.369C891.125 101.369 888.559 102.193 886.438 103.841C884.335 105.489 882.735 107.676 881.636 110.403C880.557 113.131 880.017 116.123 880.017 119.381C880.017 122.638 880.557 125.621 881.636 128.33C882.735 131.038 884.335 133.206 886.438 134.835C888.54 136.464 891.106 137.278 894.136 137.278ZM929.499 82.8182V141H924.442V82.8182H929.499ZM946.402 157.364C945.398 157.364 944.461 157.269 943.589 157.08C942.718 156.89 942.027 156.682 941.516 156.455L942.879 151.994C944.603 152.525 946.137 152.714 947.482 152.562C948.826 152.43 950.019 151.824 951.061 150.744C952.103 149.684 953.031 148.055 953.845 145.858L955.436 141.426L939.385 97.3636H944.868L957.822 134.324H958.22L971.175 97.3636H976.658L958.192 147.903C957.415 150.006 956.459 151.758 955.322 153.159C954.186 154.58 952.87 155.631 951.374 156.312C949.896 157.013 948.239 157.364 946.402 157.364ZM993.653 82.8182L993.284 124.324H988.284L987.915 82.8182H993.653ZM990.784 141.426C989.667 141.426 988.701 141.028 987.886 140.233C987.091 139.419 986.693 138.453 986.693 137.335C986.693 136.199 987.091 135.233 987.886 134.438C988.701 133.642 989.667 133.244 990.784 133.244C991.902 133.244 992.858 133.642 993.653 134.438C994.468 135.233 994.875 136.199 994.875 137.335C994.875 138.074 994.686 138.756 994.307 139.381C993.947 140.006 993.455 140.508 992.83 140.886C992.223 141.246 991.542 141.426 990.784 141.426Z" fill="white"/>
</svg>
