<svg width="1440" height="320" viewBox="0 0 1440 320" fill="none" xmlns="http://www.w3.org/2000/svg">
<path d="M0 128L40 154.7C80 181 160 235 240 261.3C320 288 400 288 480 261.3C560 235 627 276.2 707 244.5C787 212.2 880 235 960 261.3C1040 288 1120 224 1200 261.3C1280 299 1360 309 1400 314.7L1440 320V0H1400C1360 0 1280 0 1200 0C1120 0 1040 0 960 0C880 0 800 0 720 0C640 0 560 0 480 0C400 0 320 0 240 0C160 0 80 0 40 0H0V128Z" fill="#FC4D80"/>
<path d="M434.392 141V82.8182H443.17V108.102H472.176V82.8182H480.983V141H472.176V115.631H443.17V141H434.392ZM511.892 141.881C507.593 141.881 503.89 140.962 500.784 139.125C497.697 137.269 495.311 134.665 493.625 131.312C491.958 127.941 491.125 123.992 491.125 119.466C491.125 114.996 491.958 111.057 493.625 107.648C495.311 104.239 497.659 101.578 500.67 99.6648C503.701 97.7519 507.242 96.7955 511.295 96.7955C513.758 96.7955 516.144 97.2027 518.455 98.017C520.765 98.8314 522.839 100.11 524.676 101.852C526.513 103.595 527.962 105.858 529.023 108.642C530.083 111.407 530.614 114.769 530.614 118.727V121.739H495.926V115.375H522.29C522.29 113.14 521.835 111.161 520.926 109.438C520.017 107.695 518.739 106.322 517.091 105.318C515.462 104.314 513.549 103.812 511.352 103.812C508.966 103.812 506.883 104.4 505.102 105.574C503.341 106.729 501.977 108.244 501.011 110.119C500.064 111.975 499.591 113.992 499.591 116.17V121.142C499.591 124.059 500.102 126.54 501.125 128.585C502.167 130.631 503.616 132.193 505.472 133.273C507.328 134.333 509.496 134.864 511.977 134.864C513.587 134.864 515.055 134.636 516.381 134.182C517.706 133.708 518.852 133.008 519.818 132.08C520.784 131.152 521.523 130.006 522.034 128.642L530.074 130.091C529.43 132.458 528.275 134.532 526.608 136.312C524.96 138.074 522.886 139.447 520.386 140.432C517.905 141.398 515.074 141.881 511.892 141.881ZM544.158 157.364C542.889 157.364 541.733 157.259 540.692 157.051C539.65 156.862 538.874 156.653 538.362 156.426L540.408 149.466C541.961 149.883 543.343 150.063 544.555 150.006C545.768 149.949 546.838 149.494 547.766 148.642C548.713 147.79 549.546 146.398 550.266 144.466L551.317 141.568L535.351 97.3636H544.442L555.493 131.227H555.947L566.999 97.3636H576.118L558.135 146.824C557.302 149.097 556.241 151.019 554.953 152.591C553.665 154.182 552.131 155.375 550.351 156.17C548.571 156.966 546.506 157.364 544.158 157.364ZM592.418 133.045L591.991 136.142C591.707 138.415 591.224 140.782 590.543 143.244C589.88 145.725 589.188 148.027 588.469 150.148C587.768 152.269 587.19 153.955 586.736 155.205H580.713C580.959 154.03 581.3 152.439 581.736 150.432C582.171 148.443 582.598 146.218 583.014 143.756C583.431 141.294 583.743 138.784 583.952 136.227L584.236 133.045H592.418ZM634.108 82.8182V141H625.33V82.8182H634.108ZM652.659 82.8182V103.528H645.614V82.8182H652.659ZM663.632 141V97.3636H671.786V104.466H672.325C673.234 102.061 674.721 100.186 676.786 98.8409C678.85 97.4773 681.321 96.7955 684.2 96.7955C687.117 96.7955 689.56 97.4773 691.53 98.8409C693.518 100.205 694.986 102.08 695.933 104.466H696.388C697.429 102.136 699.087 100.28 701.359 98.8977C703.632 97.4962 706.34 96.7955 709.484 96.7955C713.443 96.7955 716.672 98.036 719.172 100.517C721.691 102.998 722.95 106.739 722.95 111.739V141H714.456V112.534C714.456 109.58 713.651 107.439 712.041 106.114C710.431 104.788 708.509 104.125 706.274 104.125C703.509 104.125 701.359 104.977 699.825 106.682C698.291 108.367 697.524 110.536 697.524 113.188V141H689.058V111.994C689.058 109.627 688.32 107.723 686.842 106.284C685.365 104.845 683.443 104.125 681.075 104.125C679.465 104.125 677.979 104.551 676.615 105.403C675.27 106.237 674.181 107.402 673.348 108.898C672.534 110.394 672.126 112.127 672.126 114.097V141H663.632ZM803.149 82.8182V141H795.081L765.507 98.3295H764.967V141H756.189V82.8182H764.314L793.916 125.545H794.456V82.8182H803.149ZM815.273 141V97.3636H823.767V141H815.273ZM819.562 90.6307C818.085 90.6307 816.816 90.1383 815.756 89.1534C814.714 88.1496 814.193 86.9564 814.193 85.5739C814.193 84.1723 814.714 82.9792 815.756 81.9943C816.816 80.9905 818.085 80.4886 819.562 80.4886C821.04 80.4886 822.299 80.9905 823.341 81.9943C824.402 82.9792 824.932 84.1723 824.932 85.5739C824.932 86.9564 824.402 88.1496 823.341 89.1534C822.299 90.1383 821.04 90.6307 819.562 90.6307ZM853.575 141.881C849.352 141.881 845.715 140.924 842.666 139.011C839.636 137.08 837.306 134.419 835.678 131.028C834.049 127.638 833.234 123.756 833.234 119.381C833.234 114.949 834.068 111.038 835.734 107.648C837.401 104.239 839.75 101.578 842.78 99.6648C845.81 97.7519 849.38 96.7955 853.49 96.7955C856.804 96.7955 859.759 97.411 862.354 98.642C864.948 99.8542 867.041 101.559 868.632 103.756C870.242 105.953 871.198 108.519 871.501 111.455H863.234C862.78 109.409 861.738 107.648 860.109 106.17C858.5 104.693 856.34 103.955 853.632 103.955C851.265 103.955 849.191 104.58 847.411 105.83C845.649 107.061 844.276 108.822 843.291 111.114C842.306 113.386 841.814 116.076 841.814 119.182C841.814 122.364 842.297 125.11 843.263 127.42C844.229 129.731 845.592 131.521 847.354 132.79C849.134 134.059 851.227 134.693 853.632 134.693C855.242 134.693 856.7 134.4 858.007 133.812C859.333 133.206 860.441 132.345 861.331 131.227C862.24 130.11 862.875 128.765 863.234 127.193H871.501C871.198 130.015 870.28 132.534 868.746 134.75C867.212 136.966 865.157 138.708 862.581 139.977C860.024 141.246 857.022 141.881 853.575 141.881ZM898.966 141.881C894.875 141.881 891.305 140.943 888.256 139.068C885.206 137.193 882.839 134.57 881.153 131.199C879.468 127.828 878.625 123.888 878.625 119.381C878.625 114.854 879.468 110.896 881.153 107.506C882.839 104.116 885.206 101.483 888.256 99.608C891.305 97.733 894.875 96.7955 898.966 96.7955C903.057 96.7955 906.627 97.733 909.676 99.608C912.725 101.483 915.093 104.116 916.778 107.506C918.464 110.896 919.307 114.854 919.307 119.381C919.307 123.888 918.464 127.828 916.778 131.199C915.093 134.57 912.725 137.193 909.676 139.068C906.627 140.943 903.057 141.881 898.966 141.881ZM898.994 134.75C901.646 134.75 903.843 134.049 905.585 132.648C907.328 131.246 908.616 129.381 909.449 127.051C910.301 124.722 910.727 122.155 910.727 119.352C910.727 116.568 910.301 114.011 909.449 111.682C908.616 109.333 907.328 107.449 905.585 106.028C903.843 104.608 901.646 103.898 898.994 103.898C896.324 103.898 894.108 104.608 892.347 106.028C890.604 107.449 889.307 109.333 888.455 111.682C887.621 114.011 887.205 116.568 887.205 119.352C887.205 122.155 887.621 124.722 888.455 127.051C889.307 129.381 890.604 131.246 892.347 132.648C894.108 134.049 896.324 134.75 898.994 134.75ZM937.283 82.8182V141H928.788V82.8182H937.283ZM954.08 157.364C952.811 157.364 951.655 157.259 950.614 157.051C949.572 156.862 948.795 156.653 948.284 156.426L950.33 149.466C951.883 149.883 953.265 150.063 954.477 150.006C955.689 149.949 956.759 149.494 957.688 148.642C958.634 147.79 959.468 146.398 960.188 144.466L961.239 141.568L945.273 97.3636H954.364L965.415 131.227H965.869L976.92 97.3636H986.04L968.057 146.824C967.223 149.097 966.163 151.019 964.875 152.591C963.587 154.182 962.053 155.375 960.273 156.17C958.492 156.966 956.428 157.364 954.08 157.364ZM1004.73 82.8182L1003.99 124.267H996.125L995.386 82.8182H1004.73ZM1000.07 141.54C998.502 141.54 997.157 140.991 996.04 139.892C994.922 138.775 994.373 137.43 994.392 135.858C994.373 134.305 994.922 132.979 996.04 131.881C997.157 130.763 998.502 130.205 1000.07 130.205C1001.61 130.205 1002.93 130.763 1004.05 131.881C1005.17 132.979 1005.74 134.305 1005.76 135.858C1005.74 136.9 1005.46 137.856 1004.93 138.727C1004.42 139.58 1003.74 140.261 1002.89 140.773C1002.03 141.284 1001.1 141.54 1000.07 141.54Z" fill="white"/>
</svg>
