<svg width="1440" height="320" viewBox="0 0 1440 320" fill="none" xmlns="http://www.w3.org/2000/svg">
<path d="M0 128L40 154.7C80 181 160 235 240 261.3C320 288 400 288 480 261.3C560 235 627 276.2 707 244.5C787 212.2 880 235 960 261.3C1040 288 1120 224 1200 261.3C1280 299 1360 309 1400 314.7L1440 320V0H1400C1360 0 1280 0 1200 0C1120 0 1040 0 960 0C880 0 800 0 720 0C640 0 560 0 480 0C400 0 320 0 240 0C160 0 80 0 40 0H0V128Z" fill="#FC4D80"/>
<path d="M435.727 141V82.8182H441.04V109.494H474.051V82.8182H479.364V141H474.051V114.267H441.04V141H435.727ZM511.381 141.909C507.309 141.909 503.786 140.962 500.812 139.068C497.839 137.155 495.538 134.513 493.909 131.142C492.299 127.752 491.494 123.85 491.494 119.438C491.494 115.044 492.299 111.142 493.909 107.733C495.538 104.305 497.782 101.625 500.642 99.6932C503.521 97.7424 506.845 96.767 510.614 96.767C512.981 96.767 515.263 97.2027 517.46 98.0739C519.657 98.9261 521.627 100.242 523.369 102.023C525.131 103.784 526.523 106.009 527.545 108.699C528.568 111.369 529.08 114.532 529.08 118.188V120.688H494.989V116.227H523.909C523.909 113.424 523.341 110.905 522.205 108.67C521.087 106.417 519.525 104.636 517.517 103.33C515.528 102.023 513.227 101.369 510.614 101.369C507.848 101.369 505.415 102.108 503.312 103.585C501.21 105.062 499.563 107.013 498.369 109.438C497.195 111.862 496.598 114.513 496.58 117.392V120.062C496.58 123.528 497.176 126.559 498.369 129.153C499.581 131.729 501.295 133.727 503.511 135.148C505.727 136.568 508.35 137.278 511.381 137.278C513.445 137.278 515.254 136.956 516.807 136.312C518.379 135.669 519.695 134.807 520.756 133.727C521.835 132.629 522.65 131.426 523.199 130.119L528 131.682C527.337 133.519 526.248 135.214 524.733 136.767C523.237 138.32 521.362 139.57 519.108 140.517C516.873 141.445 514.297 141.909 511.381 141.909ZM542.418 157.364C541.414 157.364 540.476 157.269 539.605 157.08C538.734 156.89 538.043 156.682 537.531 156.455L538.895 151.994C540.618 152.525 542.152 152.714 543.497 152.562C544.842 152.43 546.035 151.824 547.077 150.744C548.118 149.684 549.046 148.055 549.861 145.858L551.452 141.426L535.401 97.3636H540.884L553.838 134.324H554.236L567.19 97.3636H572.673L554.207 147.903C553.431 150.006 552.474 151.758 551.338 153.159C550.202 154.58 548.885 155.631 547.389 156.312C545.912 157.013 544.255 157.364 542.418 157.364ZM588.241 133.045L587.73 136.085C587.408 138.131 586.954 140.384 586.366 142.847C585.779 145.309 585.173 147.648 584.548 149.864C583.923 152.08 583.384 153.86 582.929 155.205H579.037C579.283 153.917 579.596 152.278 579.974 150.29C580.372 148.301 580.779 146.095 581.196 143.67C581.613 141.265 581.991 138.784 582.332 136.227L582.73 133.045H588.241ZM630.493 82.8182V141H625.18V82.8182H630.493ZM649.229 82.8182V102.222H644.456V82.8182H649.229ZM662.176 141V97.3636H667.091V104.068H667.545C668.417 101.814 669.866 100.044 671.892 98.7557C673.938 97.4489 676.39 96.7955 679.25 96.7955C682.261 96.7955 684.733 97.5057 686.665 98.9261C688.616 100.328 690.074 102.259 691.04 104.722H691.409C692.394 102.297 693.994 100.375 696.21 98.9545C698.445 97.5152 701.153 96.7955 704.335 96.7955C708.388 96.7955 711.589 98.0739 713.938 100.631C716.286 103.169 717.46 106.881 717.46 111.767V141H712.403V111.767C712.403 108.32 711.523 105.735 709.761 104.011C708 102.288 705.68 101.426 702.801 101.426C699.468 101.426 696.902 102.449 695.102 104.494C693.303 106.54 692.403 109.134 692.403 112.278V141H687.233V111.312C687.233 108.358 686.409 105.972 684.761 104.153C683.114 102.335 680.794 101.426 677.801 101.426C675.794 101.426 673.985 101.919 672.375 102.903C670.784 103.888 669.525 105.261 668.597 107.023C667.688 108.765 667.233 110.773 667.233 113.045V141H662.176ZM800.024 82.8182V141H791.956L762.382 98.3295H761.842V141H753.064V82.8182H761.189L790.791 125.545H791.331V82.8182H800.024ZM812.148 141V97.3636H820.642V141H812.148ZM816.438 90.6307C814.96 90.6307 813.691 90.1383 812.631 89.1534C811.589 88.1496 811.068 86.9564 811.068 85.5739C811.068 84.1723 811.589 82.9792 812.631 81.9943C813.691 80.9905 814.96 80.4886 816.438 80.4886C817.915 80.4886 819.174 80.9905 820.216 81.9943C821.277 82.9792 821.807 84.1723 821.807 85.5739C821.807 86.9564 821.277 88.1496 820.216 89.1534C819.174 90.1383 817.915 90.6307 816.438 90.6307ZM850.45 141.881C846.227 141.881 842.59 140.924 839.541 139.011C836.511 137.08 834.181 134.419 832.553 131.028C830.924 127.638 830.109 123.756 830.109 119.381C830.109 114.949 830.943 111.038 832.609 107.648C834.276 104.239 836.625 101.578 839.655 99.6648C842.685 97.7519 846.255 96.7955 850.365 96.7955C853.679 96.7955 856.634 97.411 859.229 98.642C861.823 99.8542 863.916 101.559 865.507 103.756C867.117 105.953 868.073 108.519 868.376 111.455H860.109C859.655 109.409 858.613 107.648 856.984 106.17C855.375 104.693 853.215 103.955 850.507 103.955C848.14 103.955 846.066 104.58 844.286 105.83C842.524 107.061 841.151 108.822 840.166 111.114C839.181 113.386 838.689 116.076 838.689 119.182C838.689 122.364 839.172 125.11 840.138 127.42C841.104 129.731 842.467 131.521 844.229 132.79C846.009 134.059 848.102 134.693 850.507 134.693C852.117 134.693 853.575 134.4 854.882 133.812C856.208 133.206 857.316 132.345 858.206 131.227C859.115 130.11 859.75 128.765 860.109 127.193H868.376C868.073 130.015 867.155 132.534 865.621 134.75C864.087 136.966 862.032 138.708 859.456 139.977C856.899 141.246 853.897 141.881 850.45 141.881ZM895.841 141.881C891.75 141.881 888.18 140.943 885.131 139.068C882.081 137.193 879.714 134.57 878.028 131.199C876.343 127.828 875.5 123.888 875.5 119.381C875.5 114.854 876.343 110.896 878.028 107.506C879.714 104.116 882.081 101.483 885.131 99.608C888.18 97.733 891.75 96.7955 895.841 96.7955C899.932 96.7955 903.502 97.733 906.551 99.608C909.6 101.483 911.968 104.116 913.653 107.506C915.339 110.896 916.182 114.854 916.182 119.381C916.182 123.888 915.339 127.828 913.653 131.199C911.968 134.57 909.6 137.193 906.551 139.068C903.502 140.943 899.932 141.881 895.841 141.881ZM895.869 134.75C898.521 134.75 900.718 134.049 902.46 132.648C904.203 131.246 905.491 129.381 906.324 127.051C907.176 124.722 907.602 122.155 907.602 119.352C907.602 116.568 907.176 114.011 906.324 111.682C905.491 109.333 904.203 107.449 902.46 106.028C900.718 104.608 898.521 103.898 895.869 103.898C893.199 103.898 890.983 104.608 889.222 106.028C887.479 107.449 886.182 109.333 885.33 111.682C884.496 114.011 884.08 116.568 884.08 119.352C884.08 122.155 884.496 124.722 885.33 127.051C886.182 129.381 887.479 131.246 889.222 132.648C890.983 134.049 893.199 134.75 895.869 134.75ZM934.158 82.8182V141H925.663V82.8182H934.158ZM950.955 157.364C949.686 157.364 948.53 157.259 947.489 157.051C946.447 156.862 945.67 156.653 945.159 156.426L947.205 149.466C948.758 149.883 950.14 150.063 951.352 150.006C952.564 149.949 953.634 149.494 954.562 148.642C955.509 147.79 956.343 146.398 957.062 144.466L958.114 141.568L942.148 97.3636H951.239L962.29 131.227H962.744L973.795 97.3636H982.915L964.932 146.824C964.098 149.097 963.038 151.019 961.75 152.591C960.462 154.182 958.928 155.375 957.148 156.17C955.367 156.966 953.303 157.364 950.955 157.364ZM998.966 82.8182L998.597 124.324H993.597L993.227 82.8182H998.966ZM996.097 141.426C994.979 141.426 994.013 141.028 993.199 140.233C992.403 139.419 992.006 138.453 992.006 137.335C992.006 136.199 992.403 135.233 993.199 134.438C994.013 133.642 994.979 133.244 996.097 133.244C997.214 133.244 998.17 133.642 998.966 134.438C999.78 135.233 1000.19 136.199 1000.19 137.335C1000.19 138.074 999.998 138.756 999.619 139.381C999.259 140.006 998.767 140.508 998.142 140.886C997.536 141.246 996.854 141.426 996.097 141.426Z" fill="white"/>
</svg>
